PathFileType	4	(X/Y/Z)	C:\Users\Basilio\Documents\Thesis Gigler\squatting_fais\c3dfiles\044\SLS_front_pre2\markers_experimental.trc
DataRate	CameraRate	NumFrames	NumMarkers	Units	OrigDataRate	OrigDataStartFrame	OrigNumFrames
200.000000	200.000000	4	60	mm	200.000000	1012	1620
Frame#	Time	FHD			LBHD			RBHD			C7			T10			CLAV			LSHO			LUUPA			LMUPA			LDUPA			LLEP			LMEP			LRAD			LRFIN			RSHO			RUPA1			RMUPA			RDUPA			RLEP			RMEP			RUL			LASI			RASI			USACR			LSACR			RSACR			LTHI1			LTHI2			LTHI3			LTHI4			LLFC			LMFC			LTIB1			LTIB2			LTIB3			LTIB4			LLMAL			LMMAL			LHEE			LMT1			LMT2			LMT5			RTHI			RTHI2			RTHI3			RTHI4			RLFC			RMFC			RTIB1			RTIB2			RTIB3			RTIB4			RLMAL			RMMAL			RHEE			RMT1			RMT2			RMT5			RUFIN			LUL			
		X1	Y1	Z1	X2	Y2	Z2	X3	Y3	Z3	X4	Y4	Z4	X5	Y5	Z5	X6	Y6	Z6	X7	Y7	Z7	X8	Y8	Z8	X9	Y9	Z9	X10	Y10	Z10	X11	Y11	Z11	X12	Y12	Z12	X13	Y13	Z13	X14	Y14	Z14	X15	Y15	Z15	X16	Y16	Z16	X17	Y17	Z17	X18	Y18	Z18	X19	Y19	Z19	X20	Y20	Z20	X21	Y21	Z21	X22	Y22	Z22	X23	Y23	Z23	X24	Y24	Z24	X25	Y25	Z25	X26	Y26	Z26	X27	Y27	Z27	X28	Y28	Z28	X29	Y29	Z29	X30	Y30	Z30	X31	Y31	Z31	X32	Y32	Z32	X33	Y33	Z33	X34	Y34	Z34	X35	Y35	Z35	X36	Y36	Z36	X37	Y37	Z37	X38	Y38	Z38	X39	Y39	Z39	X40	Y40	Z40	X41	Y41	Z41	X42	Y42	Z42	X43	Y43	Z43	X44	Y44	Z44	X45	Y45	Z45	X46	Y46	Z46	X47	Y47	Z47	X48	Y48	Z48	X49	Y49	Z49	X50	Y50	Z50	X51	Y51	Z51	X52	Y52	Z52	X53	Y53	Z53	X54	Y54	Z54	X55	Y55	Z55	X56	Y56	Z56	X57	Y57	Z57	X58	Y58	Z58	X59	Y59	Z59	X60	Y60	Z60	

1013	5.06	-164.5421295166016	1661.430419921875	-1058.427001953125	-298.6361999511719	1631.251342773438	-1136.778564453125	-343.7344360351563	1619.194580078125	-977.1872558593752	-372.9962158203126	1459.360473632813	-1061.461547851563	-461.8534240722657	1178.8056640625	-1024.237548828125	-247.033187866211	1394.291381835938	-1055.385864257813	-275.3309936523438	1455.094116210938	-1201.965087890625	-112.5800704956055	1410.18115234375	-1290.854736328125	-86.82652282714845	1419.346801757813	-1248.139282226563	-45.16918563842774	1397.147583007813	-1287.31201171875	12.78489875793457	1391.09033203125	-1274.511962890625	-5.64783000946045	1316.463500976563	-1255.579711914063	244.4885406494141	1336.90966796875	-1099.8291015625	272.4666137695313	1403.851684570313	-1050.24267578125	-290.2474365234376	1463.387084960938	-903.315856933594	-140.7091979980469	1422.982421875	-801.1549072265627	-109.7154693603516	1434.145141601563	-839.6326904296877	-71.85030364990236	1414.07763671875	-798.8203125000002	-11.06706619262695	1409.640625	-808.1278076171877	-22.4165325164795	1330.546630859375	-820.5340576171877	247.263168334961	1395.244750976563	-917.8836669921877	-338.7246093750001	952.8063964843752	-1105.331176757813	-338.3549804687501	957.095153808594	-892.1499633789065	-500.5027770996095	1018.826782226563	-998.001403808594	-509.7293395996095	985.0659790039065	-1022.057556152344	-511.0765075683595	992.6480712890627	-966.8568115234377	-342.8408508300782	725.2254638671876	-1178.496826171875	-271.6188354492188	678.6981811523439	-1182.687377929688	-233.3260192871094	705.0773315429689	-1177.152709960938	-264.8345947265626	619.9020996093751	-1166.398681640625	-177.7693786621094	495.319793701172	-1147.108520507813	-165.130615234375	502.8791809082032	-1027.099609375	-192.9390716552735	332.9812622070313	-1046.814331054688	-236.0173950195313	288.1305541992188	-1108.642944335938	-205.4765777587891	281.6090087890626	-1072.221923828125	-246.7936706542969	220.1279449462891	-1030.322998046875	-336.5098876953126	124.1116561889649	-1062.315551757813	-313.1980590820313	140.0724639892578	-979.0088500976565	-407.3130493164064	111.6873321533203	-1008.200927734375	-201.4407043457032	61.74902343750001	-985.5186767578127	-199.5910339355469	61.21952438354494	-1032.925659179688	-237.8168487548829	48.6459083557129	-1078.749633789063	-255.2012481689454	751.4335937500001	-799.336608886719	-187.0671691894532	754.9539794921876	-800.2554321289065	-170.0884704589844	782.0688476562502	-812.338317871094	-137.7191619873047	685.9566650390626	-812.2527465820315	-66.36666107177736	614.2127075195314	-817.9223632812502	-71.22438049316408	599.1284790039064	-936.1201782226565	14.64147377014161	506.7015991210939	-841.4654541015627	-34.14062500000001	422.3156738281251	-788.3791503906252	6.524729728698732	425.065887451172	-807.9926757812502	27.8307056427002	377.5298461914063	-831.7834472656252	4.631079196929933	211.6977844238282	-803.9446411132815	17.96105384826661	220.7297515869141	-889.0729980468752	-33.34514236450196	146.3260040283203	-843.1818847656252	161.5067443847657	223.3437194824219	-877.7500610351565	168.5176086425782	228.7601776123047	-841.7215576171877	145.9790191650391	199.0131225585938	-786.7039794921877	265.6488037109376	1377.267822265625	-1030.805541992188	263.4742126464844	1383.901977539063	-1149.48095703125	
1014	5.065	-164.983139038086	1662.51416015625	-1058.251098632813	-297.8005981445313	1632.896850585938	-1136.712646484375	-343.9048156738282	1620.489135742188	-977.1704101562502	-372.9901428222657	1460.314819335938	-1061.538208007813	-461.558319091797	1179.55224609375	-1024.143188476563	-247.3489685058594	1395.120361328125	-1055.45654296875	-275.3792724609376	1456.051879882813	-1201.986206054688	-112.9976882934571	1410.89404296875	-1290.681762695313	-86.9099578857422	1420.750244140625	-1248.189331054688	-45.05589675903321	1398.331176757813	-1287.541625976563	12.72337818145752	1392.311401367188	-1274.613403320313	-5.879179954528809	1317.905517578125	-1255.632202148438	244.506088256836	1337.994750976563	-1099.929809570313	272.4198913574219	1403.985107421875	-1049.804931640625	-289.8875427246094	1464.510375976563	-903.4514770507815	-140.7166748046875	1424.128051757813	-801.1026000976565	-109.688232421875	1435.04541015625	-839.384948730469	-71.90417480468751	1415.173461914063	-798.8455200195315	-11.03987407684326	1410.601440429688	-808.0603637695315	-22.37460708618164	1331.609619140625	-820.702819824219	247.3867187500001	1396.198486328125	-918.070495605469	-338.3653564453126	953.7905883789065	-1105.258422851563	-337.7903137207032	957.5791625976565	-892.1270751953127	-500.1795043945314	1019.759155273438	-997.9739990234377	-509.0075988769532	986.0585937500002	-1022.116577148438	-510.7619628906251	993.4461669921877	-966.810729980469	-342.9729614257813	726.2008666992189	-1178.484497070313	-272.3662414550782	679.4611816406251	-1182.440063476563	-233.5386657714844	705.5975952148439	-1177.04296875	-265.1822509765626	620.4104614257814	-1166.509765625	-178.4654235839844	495.7261352539064	-1147.317260742188	-165.7718048095703	502.8222045898439	-1026.96728515625	-193.3474731445313	333.4573974609376	-1047.211547851563	-236.4768524169922	288.2924499511719	-1108.863037109375	-205.2239990234376	280.3883056640626	-1071.858276367188	-246.9830017089844	220.2158355712891	-1030.590454101563	-336.4803161621094	124.0777206420899	-1062.402587890625	-313.2516174316407	140.1631622314453	-979.2034912109377	-407.3113403320314	111.7133560180664	-1008.284606933594	-201.4041595458985	61.75867462158205	-985.6097412109377	-199.6370086669922	61.10196685791017	-1032.987060546875	-237.7731018066407	48.59269332885744	-1078.839965820313	-255.4720306396485	751.7126464843751	-799.231872558594	-187.1988067626953	754.9022216796876	-800.3262329101565	-170.1419982910157	781.9283447265627	-812.3677368164065	-138.2224884033203	686.1138305664064	-812.3692626953127	-67.1841278076172	613.9598999023439	-818.2447509765627	-72.2932586669922	598.4707031250001	-936.1182861328127	13.14133930206299	505.9167785644532	-841.5547485351565	-35.99880599975587	421.2379760742189	-788.1015625000002	4.457424640655518	424.2237548828126	-808.1221313476565	25.97416496276856	375.8842468261719	-831.7827758789065	1.832576632499695	210.7820587158204	-804.1009521484377	15.35249519348145	219.6767883300782	-888.9492187500002	-36.62894821166993	145.4824676513672	-843.2885742187502	158.5200500488282	221.5575714111329	-877.7971801757815	165.4090728759766	227.1283874511719	-842.2611083984377	143.3528594970703	196.7517395019532	-786.6697387695315	265.4690551757813	1378.349609375	-1030.896118164063	263.5708618164063	1385.003173828125	-1149.614013671875	
1015	5.07	-164.2071990966797	1663.622192382813	-1057.820678710938	-297.8916320800782	1634.246459960938	-1136.667846679688	-343.9451599121094	1621.459106445313	-977.2181396484377	-372.9774169921876	1461.558715820313	-1061.416015625	-461.2763671875001	1180.850463867188	-1024.23388671875	-247.2101593017579	1396.671630859375	-1055.50830078125	-275.3499145507813	1457.69580078125	-1202.0400390625	-112.7065963745117	1412.38134765625	-1290.887084960938	-86.45876312255861	1421.47021484375	-1248.116088867188	-45.13647079467774	1399.42236328125	-1287.5732421875	12.26979160308838	1393.861938476563	-1274.597045898438	-5.809688568115235	1318.99267578125	-1255.819091796875	244.4254760742188	1338.927124023438	-1100.0947265625	272.3774719238282	1405.094604492188	-1049.97509765625	-290.1206359863282	1465.529541015625	-903.3772583007815	-140.8047332763672	1425.13427734375	-801.1291503906252	-109.725212097168	1436.220947265625	-839.4373779296877	-71.95637512207033	1416.1259765625	-798.9539184570315	-10.90678501129151	1411.986206054688	-808.170837402344	-22.50834465026856	1332.617553710938	-820.459411621094	247.2055206298829	1397.383666992188	-918.071228027344	-337.8979187011719	954.9700927734377	-1105.187377929688	-337.3287353515626	959.0375976562502	-892.070007324219	-499.6470031738282	1020.750915527344	-997.8718872070315	-509.0759887695314	987.379821777344	-1021.947204589844	-510.2487792968751	994.947204589844	-966.7730712890627	-343.3917236328126	727.1413574218751	-1177.83935546875	-272.8076782226563	680.1414794921876	-1182.558837890625	-233.7220153808594	706.3121948242189	-1177.201293945313	-265.7629394531251	621.0972290039064	-1166.597900390625	-179.2805328369141	496.0799865722657	-1147.540405273438	-166.4248199462891	503.4724731445314	-1027.256958007813	-193.9667663574219	333.8806762695313	-1047.4443359375	-236.827865600586	288.4897766113282	-1109.052734375	-205.9750518798829	281.8390502929688	-1072.619384765625	-247.1542663574219	220.2889251708985	-1030.979736328125	-336.5534362792969	124.0305786132813	-1062.5341796875	-313.3127136230469	140.2130889892578	-979.3557739257815	-407.3066406250001	111.7213745117188	-1008.322326660156	-201.3982849121094	61.88063430786134	-985.727478027344	-199.6120758056641	61.03945541381837	-1033.056274414063	-237.825180053711	48.48441314697267	-1078.900146484375	-255.5502929687501	752.1561279296876	-799.2670898437502	-187.4045104980469	754.8687133789064	-800.3591918945315	-170.187744140625	781.724792480469	-812.4268188476565	-138.8639373779297	685.8833007812501	-812.2337036132815	-67.94361114501955	612.9049682617189	-817.9182739257815	-73.29712677001955	597.3899536132814	-936.1579589843752	11.75267028808594	504.505340576172	-841.5119628906252	-37.94456481933594	420.2335510253907	-788.0870361328127	2.656220436096192	423.1087341308595	-807.980895996094	23.58047866821289	374.9893798828126	-831.7287597656252	-1.37050986289978	209.9261474609376	-803.9507446289065	12.03316688537598	218.6898193359376	-888.9909667968752	-40.05920410156251	144.6047668457032	-843.0964965820315	155.5767364501953	219.4570922851563	-877.7741699218752	162.911849975586	224.7670135498047	-841.943298339844	140.1116790771485	194.8845214843751	-786.810241699219	265.7950744628907	1379.391967773438	-1030.950317382813	263.3969116210938	1386.00048828125	-1149.535278320313	
1016	5.075	-164.6326751708985	1664.93701171875	-1057.653198242188	-297.9249572753907	1635.425415039063	-1136.57568359375	-344.0336914062501	1622.826782226563	-977.152526855469	-373.0289001464844	1462.6376953125	-1061.50341796875	-461.0073852539064	1181.67578125	-1024.090698242188	-246.6670989990235	1397.948364257813	-1055.52490234375	-275.4367675781251	1458.160766601563	-1202.238403320313	-113.1643524169922	1413.395141601563	-1290.817626953125	-86.74482727050783	1423.147583007813	-1248.168579101563	-45.14022064208985	1400.658447265625	-1287.679565429688	12.20196151733399	1394.993774414063	-1274.690185546875	-6.137227535247805	1320.171752929688	-1255.604248046875	244.4449615478516	1340.070678710938	-1100.305419921875	272.4216613769532	1405.983764648438	-1050.144775390625	-289.7416076660157	1467.384521484375	-903.7368164062502	-140.6460571289063	1426.270874023438	-801.1318359375002	-109.7038345336914	1437.44921875	-839.5528564453127	-71.7980422973633	1417.25048828125	-798.716003417969	-10.85145854949951	1413.31787109375	-808.0652465820315	-22.47189712524414	1333.705810546875	-820.6355590820315	247.3138885498047	1398.33251953125	-918.2652587890627	-337.5270080566407	956.037780761719	-1105.172729492188	-336.9039611816407	959.882995605469	-892.0423583984377	-499.3380126953126	1021.882873535156	-997.7766723632815	-509.0239562988282	988.817810058594	-1021.827880859375	-509.4564819335939	995.6511230468752	-966.777282714844	-343.3047180175782	728.0329589843751	-1178.641235351563	-273.1633911132813	680.7687377929689	-1182.677368164063	-233.9659423828126	706.8966674804689	-1177.3779296875	-266.3647155761719	621.7800903320314	-1166.726684570313	-180.74169921875	496.9618225097657	-1147.743774414063	-166.5704498291016	504.0095520019532	-1027.804931640625	-194.3904266357422	334.0312805175782	-1047.65673828125	-237.2642364501954	288.6926574707032	-1109.334838867188	-206.2021179199219	281.9338073730469	-1073.089965820313	-247.3480377197266	220.3035736083985	-1031.283569335938	-336.6630554199219	123.9981765747071	-1062.722290039063	-313.3278808593751	140.3520050048828	-979.5921630859377	-407.290496826172	111.7682418823242	-1008.380432128906	-201.3649291992188	61.99053192138673	-985.7835693359377	-199.6239624023438	61.05106353759767	-1033.168090820313	-237.8178710937501	48.3894729614258	-1078.984375	-255.9529571533204	752.5674438476564	-799.1563110351565	-187.5926666259766	754.7980957031251	-800.377624511719	-170.2742156982422	781.4924926757815	-812.4311523437502	-139.3482360839844	685.5357055664064	-812.3035278320315	-69.05108642578126	612.2346191406251	-818.1992797851565	-74.10814666748048	597.2187500000001	-936.1540527343752	10.27903842926026	503.407440185547	-841.522155761719	-39.7191276550293	419.5641174316407	-788.2156372070315	0.7599493861198428	422.1474609375001	-808.1585693359377	21.52510261535645	373.6689147949219	-831.8736572265627	-4.208643913269044	208.5332489013672	-804.0352172851565	9.221457481384279	217.4678955078126	-888.9849243164065	-43.34866333007813	143.9159088134766	-843.003356933594	151.9937744140625	216.954574584961	-878.171569824219	159.5790557861328	223.0909729003907	-842.3301391601565	136.8445739746094	192.7784881591797	-787.0434570312502	265.9377746582032	1380.140014648438	-1031.038208007813	263.2323608398438	1387.468017578125	-1149.81298828125	
